<svg width="1024" height="1024" viewBox="0 0 100 100" fill="none" xmlns="http://www.w3.org/2000/svg">
    <!-- ??1: ???? M - ??????? -->
    <defs>
        <linearGradient id="grad1" x1="0%" y1="0%" x2="100%" y2="100%">
            <stop offset="0%" style="stop-color:#FF9E66"/>
            <stop offset="100%" style="stop-color:#FF6D00"/>
        </linearGradient>
    </defs>

    <!-- M ?? - ??????? -->
    <path d="M15 80 L15 30 Q15 20 25 20 L30 20 Q38 20 42 30 L50 50 L58 30 Q62 20 70 20 L75 20 Q85 20 85 30 L85 80 Q85 85 80 85 L75 85 Q70 85 70 80 L70 50 L58 75 Q55 82 50 82 Q45 82 42 75 L30 50 L30 80 Q30 85 25 85 L20 85 Q15 85 15 80 Z"
          fill="url(#grad1)"/>

    <!-- ????? -->
    <circle cx="50" cy="35" r="4" fill="#D84315"/>
</svg>